<?xml version="1.0" encoding="utf-8"?>
<!-- Generator: Adobe Illustrator 19.0.0, SVG Export Plug-In . SVG Version: 6.00 Build 0)  -->
<svg version="1.1" id="Layer_1" xmlns="http://www.w3.org/2000/svg" xmlns:xlink="http://www.w3.org/1999/xlink" x="0px" y="0px"
	 viewBox="-443 236 72 90" style="enable-background:new -443 236 72 90;" xml:space="preserve">
<style type="text/css">
	.st0{fill:#29ABE2;}
</style>
<g>
	<path class="st0" d="M-372,278.5c0.4-0.3,0.3-1-0.2-1.3l-13.2-5.6c-0.3-0.1-0.7-0.1-0.9,0.1l-3.9,3.1c-0.3,0.2-0.6,0.3-0.9,0.1
		l-11.6-5c-0.4-0.2-0.6-0.5-0.6-0.9v-0.1c0-3.7-3.1-6.7-6.8-6.5c-3.4,0.1-6.1,2.9-6.3,6.3c-0.1,3.7,2.8,6.8,6.5,6.8
		c1.7,0,3.2-0.7,4.4-1.7c0.3-0.2,0.7-0.3,1-0.2l11.8,5.1c0.3,0.1,0.5,0.4,0.6,0.8l0.5,5c0,0.3,0.2,0.6,0.6,0.8l12.9,5.5
		c0.6,0.3,1.4-0.2,1.3-0.9l-0.6-6.3c0-0.3,0.1-0.6,0.3-0.8L-372,278.5z"/>
	<path class="st0" d="M-391.8,270.4c0.3,0.1,0.7,0.1,1-0.1l2-1.6l0,0c-0.1-11.7-9.6-21-21.3-20.9c-11.4,0.1-20.8,9.5-20.9,21
		c-0.1,11.7,9.5,21.2,21.2,21.2c5.3,0,10.1-2,13.8-5.2c0.2-0.2,0.4-0.5,0.3-0.8l-0.2-1.9c0-0.3-0.3-0.6-0.6-0.8l-0.2-0.1
		c-0.4-0.2-0.8-0.1-1,0.2c-3.2,3.1-7.7,5-12.5,4.9c-9.2-0.2-16.7-7.6-17-16.8c-0.4-9.9,7.6-18.2,17.5-18.2c9.6,0,17.5,7.8,17.5,17.5
		c0,0.2,0,0.3,0,0.5C-392.4,269.8-392.2,270.2-391.8,270.4L-391.8,270.4z"/>
	<path class="st0" d="M-390.6,295.1c1.2-0.9,2.3-1.9,3.4-2.9c0.3-0.3,0.2-0.9-0.2-1.1l-2.2-0.9c-0.2-0.1-0.5-0.1-0.7,0.1
		c-5.2,4.7-12.1,7.6-19.7,7.6c-16-0.2-28.9-13.5-28.7-29.4c0.3-15.7,13.1-28.4,28.9-28.4c15.4,0,28,12.1,28.8,27.4
		c0,0.3,0,0.9,0,1.3c0,0.2,0.1,0.4,0.3,0.5l2.1,0.9c0.6,0.2,1.2-0.2,1.2-0.8c0-0.1,0-0.3,0-0.4c0-20.4-18.9-36.4-40.1-31.6
		c-11.7,2.7-21,11.8-23.8,23.5c-3.3,13.7,2.2,26.5,12,33.9c0.5,0.4,0.6,1.1,0.1,1.6l-7.7,7.7c-0.8,0.8-0.8,2,0,2.8
		c0.4,0.4,0.9,0.6,1.4,0.6s1-0.2,1.4-0.6l8.7-8.7c0.3-0.3,0.8-0.4,1.2-0.2c4.3,2.2,9.2,3.4,14.4,3.4c5.3,0,10.2-1.3,14.6-3.5
		c0.3-0.1,0.6-0.1,0.8,0.1l8.9,8.9c0.4,0.4,0.9,0.6,1.4,0.6c0.6,0,1.2-0.3,1.6-0.8c0.6-0.8,0.5-2-0.2-2.6l-8-8
		C-391,295.8-390.9,295.3-390.6,295.1z"/>
</g>
</svg>
