<?xml version="1.0" encoding="utf-8"?>
<!-- Generator: Adobe Illustrator 19.0.0, SVG Export Plug-In . SVG Version: 6.00 Build 0)  -->
<svg version="1.1" id="Layer_1" xmlns="http://www.w3.org/2000/svg" xmlns:xlink="http://www.w3.org/1999/xlink" x="0px" y="0px"
	 viewBox="-455 251 48 60" style="enable-background:new -455 251 48 60;" xml:space="preserve">
<style type="text/css">
	.st0{fill:#29ABE2;}
</style>
<g>
	<path class="st0" d="M-418.4,266.4c-1.6-0.5-3.2-0.8-4.9-0.8c-7.1,0-13.4,4.6-15.5,11.5c-2.7,8.7,2.1,17.9,10.6,20.7
		c1.6,0.5,3.2,0.8,4.9,0.8c7.1,0,13.4-4.6,15.5-11.5C-405.1,278.4-409.8,269.1-418.4,266.4z M-422.4,287.7l0,2.1l-1.3,0l0-2.1
		c-1.2,0-2.4-0.4-3.1-0.9l0.5-1.4c0.7,0.5,1.8,0.9,2.9,0.8c1.4,0,2.4-0.9,2.4-2c0-1.1-0.8-1.8-2.3-2.4c-2.1-0.8-3.4-1.7-3.4-3.5
		c0-1.7,1.1-3,3-3.3l0-2.1l1.3,0l0,2c1.2,0,2,0.3,2.6,0.7l-0.5,1.4c-0.4-0.2-1.3-0.7-2.6-0.7c-1.6,0-2.1,1-2.1,1.8
		c0,1.1,0.8,1.6,2.5,2.3c2.1,0.8,3.2,1.9,3.2,3.7C-419.2,285.8-420.3,287.3-422.4,287.7z"/>
	<path class="st0" d="M-439.3,273.5c-1.1,0-2.2-0.4-2.9-0.8l0.5-1.4c0.7,0.5,1.8,0.9,2.9,0.8c0.1,0,0.2,0,0.3,0
		c0.6-0.9,1.2-1.8,2-2.5c-0.2-0.8-1-1.4-2.2-1.9c-2.1-0.8-3.4-1.7-3.4-3.5c0-1.7,1.1-3,3-3.3l0-2.1l1.3,0l0,2c1.2,0,2,0.3,2.6,0.7
		l-0.5,1.4c-0.4-0.2-1.3-0.7-2.6-0.7c-1.6,0-2.1,1-2.1,1.8c0,1.1,0.8,1.6,2.5,2.3c1.3,0.5,2.2,1.1,2.7,2c3.2-2.8,7.4-4.5,11.9-4.5
		c0.1,0,0.2,0,0.2,0c-1.4-5.3-5.3-9.8-10.8-11.6c-1.6-0.5-3.2-0.8-4.9-0.8c-7.1,0-13.4,4.6-15.5,11.5c-2.7,8.7,2.1,17.9,10.6,20.7
		c0.8,0.2,1.6,0.4,2.4,0.6c-0.3-2.5-0.1-5,0.7-7.6C-440.2,275.5-439.8,274.5-439.3,273.5z"/>
</g>
</svg>
