<?xml version="1.0" encoding="utf-8"?>
<!-- Generator: Adobe Illustrator 19.0.0, SVG Export Plug-In . SVG Version: 6.00 Build 0)  -->
<svg version="1.1" id="Layer_2" xmlns="http://www.w3.org/2000/svg" xmlns:xlink="http://www.w3.org/1999/xlink" x="0px" y="0px"
	 viewBox="0 0 203.8 116.7" style="enable-background:new 0 0 203.8 116.7;" xml:space="preserve">
<style type="text/css">
	.st0{fill:#29ABE2;}
</style>
<path id="XMLID_3_" class="st0" d="M149.2,53.4c-3.4,1.9-2.1,9.7,3.1,11.4c7.6,2.6,24.3-3.1,27.2,2.4c2,3.7-1.7,4.2-1.7,4.2
	s15.2,4.8,18.2,6.6c1.6,1-0.1,4.9-4.9,4.9c-6,0-25.5-10.1-34.9-5.9c-9.4,4.2-13.6,0.3-13.6-1.4s-17.3,8.1-58.7-5.6
	c-8.8-2.9-17.5,10.5-24.4,13c0,0-6.7,2.3-12.9,1s-1.5,4.5-5.3,5.7s-13.8,7.4-5.3-6.4c4.2-6.8-17,1.6-18.4,6.4
	c-0.7,2.4-17.9,4.4-5.8-5.8s9.2-12.5,25.9-9.4C49.1,76.6,45,59,45.8,56.8c0.8-2.1,11.1-10.7,12.7-4.6c1.6,6.1,25.7-12.2,44.6-6.6
	c12.1,3.6,18.4-3.7,18.4-6c0-2.3,2.1-4.2,1.6-6.9c-0.3-1.3-4.2,2.8-14.6-21.4c-2.4-5.7,7.2,0.1,6.4,0.9c-0.8,0.8,2.3-10,15.8,9.9
	c7.9,11.7,8.9,7.4,11,7.4s11.1,7.5,9.7,9.4C149.3,41.7,161.7,46.3,149.2,53.4z"/>
</svg>
