<?xml version="1.0" encoding="utf-8"?>
<!-- Generator: Adobe Illustrator 19.0.0, SVG Export Plug-In . SVG Version: 6.00 Build 0)  -->
<svg version="1.1" id="Layer_1" xmlns="http://www.w3.org/2000/svg" xmlns:xlink="http://www.w3.org/1999/xlink" x="0px" y="0px"
	 viewBox="-343 240.1 272.2 81.9" style="enable-background:new -343 240.1 272.2 81.9;" xml:space="preserve">
<style type="text/css">
	.st0{fill:#F58B1F;}
	.st1{fill:#FFFFFF;}
	.st2{fill:#231F20;}
</style>
<g id="XMLID_96_">
	<path id="XMLID_2_" class="st0" d="M-188.6,277.6c3.5,4.9,11.3,4.4,12.6,9.1c0.8,3-1.8,6.1-5.4,5.7c-2.5-0.3-2.7-2.4-4.7-3.8
		c-1.8,0.4-2.8,1.6-4.4,2.2c4,12.4,21.3,7,20.5-4.1c-0.4-5.2-4-6.8-8.2-9.1c-2-1.1-6.2-2.1-6-5c0.2-2.6,4.6-3.4,7.6-2.5
		c1.9,0.6,2.5,2.8,4.4,2.2c0-2.1,0-4.2,0-6.3C-182.4,260.4-195,268.8-188.6,277.6z M-241.6,265c-1.2,0.7-0.7,4.5-0.3,5.7
		c2.4,0,4.8,0,7.3,0c0,8.9,0,17.9,0,26.8c1.2,0.5,4.2,0.5,5.4,0c0.9-8.2-0.3-18.6,0.6-26.8c2.2-0.2,5.2,0.4,6.9-0.3
		c0.5-1.1,0.5-4,0-5C-227.8,264.6-235.1,265.2-241.6,265z M-213.9,265c-0.5,0.2-0.8,0.5-0.9,0.9c0.2,10.4-0.4,21.7,0.3,31.5
		c5.2,0.7,11.7,0.1,17.3,0.3c0.5-1.3,0.5-4.4,0-5.7c-3.9-0.2-8.6,0.4-12-0.3c0-2.6,0-5.3,0-7.9c3.5,0,6.9,0,10.4,0
		c0.5-1.2,0.5-4.2,0-5.4c-3.5,0-6.9,0-10.4,0c0.2-2.5-0.4-5.9,0.3-7.9c3.5,0,6.9,0,10.4,0c0.5-1.3,0.5-4.4,0-5.7
		C-203.6,265-208.7,265-213.9,265z M-163.4,265c-1.2,0.7-0.7,4.5-0.3,5.7c2.4,0,4.8,0,7.3,0c0,8.9,0,17.9,0,26.8
		c1.2,0.5,4.2,0.5,5.4,0c0.9-8.2-0.3-18.6,0.6-26.8c2.2-0.2,5.2,0.4,6.9-0.3c0.5-1.1,0.5-4,0-5C-149.5,264.6-156.9,265.2-163.4,265z
		 M-136.6,266c0,10.4,0,20.8,0,31.2c1.3,0.5,4.4,0.5,5.7,0c0-10.6,0-21.2,0-31.9C-132.3,264.9-136.2,264.4-136.6,266z M-123,265.3
		c1.9,10.5,6.3,21.2,8.8,32.2c1.8,0,3.6,0,5.4,0c3-10.8,6.5-21,9.1-32.2c-1.1-0.7-3.4-0.2-5-0.3c-2.5,7.1-4,15.3-6.9,22.1
		c-1.9-7.6-4.3-14.6-6.3-22.1C-119.6,265.2-121.9,264.7-123,265.3z M-90.9,265c-0.5,0.2-0.8,0.5-0.9,0.9c0.2,10.4-0.4,21.7,0.3,31.5
		c5.2,0.7,11.7,0.1,17.3,0.3c0.5-1.3,0.5-4.4,0-5.7c-3.9-0.2-8.6,0.4-12-0.3c0-2.6,0-5.3,0-7.9c3.5,0,6.9,0,10.4,0
		c0.5-1.2,0.5-4.2,0-5.4c-3.5,0-6.9,0-10.4,0c0.2-2.5-0.4-5.9,0.3-7.9c3.5,0,6.9,0,10.4,0c0.5-1.3,0.5-4.4,0-5.7
		C-80.6,265-85.7,265-90.9,265z"/>
	<path id="XMLID_10_" class="st0" d="M-172.2,266c0,2.1,0,4.2,0,6.3c-1.9,0.6-2.5-1.6-4.4-2.2c-3-0.9-7.4-0.1-7.6,2.5
		c-0.2,2.9,4,3.9,6,5c4.2,2.3,7.8,3.9,8.2,9.1c0.8,11.1-16.5,16.5-20.5,4.1c1.6-0.6,2.6-1.8,4.4-2.2c2,1.4,2.2,3.5,4.7,3.8
		c3.5,0.4,6.2-2.6,5.4-5.7c-1.3-4.7-9.1-4.2-12.6-9.1C-195,268.8-182.4,260.4-172.2,266z"/>
	<path id="XMLID_11_" class="st0" d="M-221.8,265.3c0.5,1.1,0.5,4,0,5c-1.7,0.7-4.7,0.1-6.9,0.3c-0.9,8.2,0.3,18.6-0.6,26.8
		c-1.2,0.5-4.2,0.5-5.4,0c0-8.9,0-17.9,0-26.8c-2.4,0-4.8,0-7.3,0c-0.4-1.2-0.8-5,0.3-5.7C-235.1,265.2-227.8,264.6-221.8,265.3z"/>
	<path id="XMLID_12_" class="st0" d="M-198.4,265c0.5,1.3,0.5,4.4,0,5.7c-3.5,0-6.9,0-10.4,0c-0.7,2-0.1,5.4-0.3,7.9
		c3.5,0,6.9,0,10.4,0c0.5,1.2,0.5,4.2,0,5.4c-3.5,0-6.9,0-10.4,0c0,2.6,0,5.3,0,7.9c3.4,0.7,8.1,0.1,12,0.3c0.5,1.3,0.5,4.4,0,5.7
		c-5.7-0.2-12.2,0.4-17.3-0.3c-0.7-9.9-0.1-21.1-0.3-31.5c0.2-0.5,0.5-0.8,0.9-0.9C-208.7,265-203.6,265-198.4,265z"/>
	<path id="XMLID_13_" class="st0" d="M-143.5,265.3c0.5,1.1,0.5,4,0,5c-1.7,0.7-4.7,0.1-6.9,0.3c-0.9,8.2,0.3,18.6-0.6,26.8
		c-1.2,0.5-4.2,0.5-5.4,0c0-8.9,0-17.9,0-26.8c-2.4,0-4.8,0-7.3,0c-0.4-1.2-0.8-5,0.3-5.7C-156.9,265.2-149.5,264.6-143.5,265.3z"/>
	<path id="XMLID_14_" class="st0" d="M-130.9,265.3c0,10.6,0,21.2,0,31.9c-1.3,0.5-4.4,0.5-5.7,0c0-10.4,0-20.8,0-31.2
		C-136.2,264.4-132.3,264.9-130.9,265.3z"/>
	<path id="XMLID_15_" class="st0" d="M-118,265c2,7.5,4.4,14.5,6.3,22.1c2.9-6.8,4.4-14.9,6.9-22.1c1.6,0.2,3.9-0.3,5,0.3
		c-2.6,11.1-6.2,21.3-9.1,32.2c-1.8,0-3.6,0-5.4,0c-2.5-10.9-6.9-21.7-8.8-32.2C-121.9,264.7-119.6,265.2-118,265z"/>
	<path id="XMLID_16_" class="st0" d="M-75.4,265c0.5,1.3,0.5,4.4,0,5.7c-3.5,0-6.9,0-10.4,0c-0.7,2-0.1,5.4-0.3,7.9
		c3.5,0,6.9,0,10.4,0c0.5,1.2,0.5,4.2,0,5.4c-3.5,0-6.9,0-10.4,0c0,2.6,0,5.3,0,7.9c3.4,0.7,8.1,0.1,12,0.3c0.5,1.3,0.5,4.4,0,5.7
		c-5.7-0.2-12.2,0.4-17.3-0.3c-0.7-9.9-0.1-21.1-0.3-31.5c0.2-0.5,0.5-0.8,0.9-0.9C-85.7,265-80.6,265-75.4,265z"/>
</g>
<path id="XMLID_23_" class="st1" d="M-321.5,243c0,0,2,0.9,9.4,19.3h24.8c0,0,4.7-14.5,9.6-20l3.7,6.6l-1.8,3.8l3.6,0.9
	c0,0,12.7,42.7,13.2,43.5l-7.2-2.2l5.5,9.1l-9.6-3.5l3.1,5.1h-8.4l-21.8,14.3h-4.5l-24.4-14.1l-7.2,0.1l3.7-5.2l-8.5,3l5-9l-6.8,2.4
	C-340.1,297.1-323.3,241.7-321.5,243"/>
<polygon id="XMLID_22_" class="st0" points="-304.8,306.6 -295.1,306.6 -299.9,312.2 "/>
<path id="XMLID_21_" class="st2" d="M-297.7,280c2.2,0,2.5,4.1,2.5,4.1c1.6,7.4,7.1,10.6,7.1,10.6c2.7,2,14.3,0.6,14.3,0.6
	c4.6-0.6,5.8-3.6,5.8-3.6c2.1-2.7,2.8-9.5,2.8-9.5c0.1-4.4,3-4.7,3-4.7v-3.1c-3.2-1.7-12.1-2-12.1-2h-8.2c-8.2,0-14.9,4-14.9,4"/>
<path id="XMLID_20_" class="st0" d="M-297.7,280c2.2,0,2.5,4.1,2.5,4.1c1.6,7.4,7.1,10.6,7.1,10.6c2.7,2,14.3,0.6,14.3,0.6
	c4.6-0.6,5.8-3.6,5.8-3.6c2.1-2.7,2.8-9.5,2.8-9.5c0.1-4.4,3-4.7,3-4.7v-3.1c-3.2-1.7-12.1-2-12.1-2h-8.2c-8.2,0-14.9,4-14.9,4"/>
<path id="XMLID_19_" class="st2" d="M-297.1,280.1l-3.6-0.1c-2.2,0-2.5,4.1-2.5,4.1c-1.5,7.4-7.1,10.6-7.1,10.6
	c-2.7,2-14.3,0.6-14.3,0.6c-4.6-0.6-5.8-3.6-5.8-3.6c-2.1-2.7-2.8-9.5-2.8-9.5c-0.1-4.4-3-4.7-3-4.7v-3.1c3.2-1.7,12.1-2,12.1-2h8.2
	c8.2,0,14.9,4,14.9,4h4.1L-297.1,280.1z"/>
<path id="XMLID_18_" class="st0" d="M-297.1,280.1l-3.6-0.1c-2.2,0-2.5,4.1-2.5,4.1c-1.5,7.4-7.1,10.6-7.1,10.6
	c-2.7,2-14.3,0.6-14.3,0.6c-4.6-0.6-5.8-3.6-5.8-3.6c-2.1-2.7-2.8-9.5-2.8-9.5c-0.1-4.4-3-4.7-3-4.7v-3.1c3.2-1.7,12.1-2,12.1-2h8.2
	c8.2,0,14.9,4,14.9,4h4.1L-297.1,280.1z"/>
<path id="XMLID_17_" class="st1" d="M-331.2,277.1c0,0,1.3-2.4,6.3-3c0,0,4.5-0.6,11.5,0c0,0,6.7,0.5,7.9,3.9c0,0,1.1,3-0.6,8.3
	c0,0-1.4,5.2-5.5,7c0,0-3.5,2.1-13.9,0c0,0-4.4-0.8-5.8-7.7C-331.3,285.7-332.4,280.9-331.2,277.1"/>
<path id="XMLID_1_" class="st1" d="M-267.4,277.1c0,0-1.3-2.4-6.3-3c0,0-4.5-0.6-11.5,0c0,0-6.7,0.5-7.9,3.9c0,0-1.1,3,0.6,8.3
	c0,0,1.4,5.2,5.5,7c0,0,3.5,2.1,13.9,0c0,0,4.4-0.8,5.8-7.7C-267.4,285.7-266.2,280.9-267.4,277.1"/>
</svg>
