<?xml version="1.0" encoding="utf-8"?>
<!-- Generator: Adobe Illustrator 19.0.0, SVG Export Plug-In . SVG Version: 6.00 Build 0)  -->
<svg version="1.1" id="Layer_1" xmlns="http://www.w3.org/2000/svg" xmlns:xlink="http://www.w3.org/1999/xlink" x="0px" y="0px"
	 viewBox="-217 18.9 524.1 524.1" style="enable-background:new -217 18.9 524.1 524.1;" xml:space="preserve">
<style type="text/css">
	.st0{fill:#F58B1E;}
</style>
<g>
	<g>
		<path class="st0" d="M45,28.3c-139.6,0-252.7,113.1-252.7,252.7S-94.6,533.7,45,533.7c139.5,0,252.7-113.1,252.7-252.6
			S184.5,28.3,45,28.3z M45,494.2c-117.5,0-213.2-95.6-213.2-213.1c0-117.6,95.6-213.1,213.2-213.1c117.5,0,213.1,95.6,213.1,213.1
			C258.1,398.5,162.4,494.2,45,494.2z"/>
		<path class="st0" d="M130.4,366.5c-47.1,47.1-123.8,47.1-170.9,0c-7.7-7.7-20.2-7.7-28,0c-7.7,7.8-7.7,20.3,0,28
			c31.2,31.3,72.3,46.9,113.4,46.9c41,0,82.2-15.6,113.4-46.9c7.8-7.7,7.8-20.2,0-28C150.6,358.7,138.1,358.7,130.4,366.5z"/>
		<path class="st0" d="M-26,254.9c15.5,0,28-12.5,28-28s-12.6-28-28-28c-15.5,0-28,12.5-28,28S-41.5,254.9-26,254.9z"/>
		<path class="st0" d="M115.9,254.9c15.5,0,28-12.5,28-28s-12.5-28-28-28c-15.4,0-28,12.5-28,28S100.5,254.9,115.9,254.9z"/>
	</g>
</g>
</svg>
