<?xml version="1.0" encoding="utf-8"?>
<!-- Generator: Adobe Illustrator 19.0.0, SVG Export Plug-In . SVG Version: 6.00 Build 0)  -->
<svg version="1.1" id="Layer_1" xmlns="http://www.w3.org/2000/svg" xmlns:xlink="http://www.w3.org/1999/xlink" x="0px" y="0px"
	 viewBox="-426 249.1 91.7 63.6" style="enable-background:new -426 249.1 91.7 63.6;" xml:space="preserve">
<style type="text/css">
	.st0{opacity:0.1;}
	.st1{fill:#FFFFFF;}
</style>
<g class="st0">
	<path class="st1" d="M-361.7,262.3C-361.3,262.4-361.8,262.2-361.7,262.3L-361.7,262.3z"/>
	<path class="st1" d="M-344.5,276.1c-0.2,0-0.4,0-0.4,0s-0.2,1.5-0.1,1.9C-344.7,277.6-344.5,276.7-344.5,276.1z"/>
	<path class="st1" d="M-342.2,269.7c-0.2,0.2-0.2,0.3-0.3,0.5c0.9,0.1,2-0.7,2.5-1.6c-0.3,0.1-0.7,0.5-1,0.5
		c0.1-0.1,0.2-0.2,0.2-0.3C-341.3,269-341.8,269.4-342.2,269.7z"/>
	<path class="st1" d="M-401.9,269.6c-0.1,0.5-0.2,1.1-0.2,1.6c3.4,0.5,6.8,0.8,10.2,1.1c0.1-1.9,0.3-3.8,0.4-5.7
		c0-0.6,0.1-1.1,0.1-1.7c0-0.4-0.8-0.3-1.1-0.3c-1.1-0.1-2.1-0.2-3.2-0.3c-0.9-0.1-1.9-0.2-2.8-0.3c-0.6-0.1-2.5-0.6-2.5-0.1
		C-401.4,265.9-401.7,267.7-401.9,269.6z"/>
	<path class="st1" d="M-355.6,277.6c0.3,0.4,0.7,0.7,1.1,1c0.7,0.4,1.3-0.2,1.9-0.4c0-0.8,0.4-1.5,0.6-2.2c0.1-0.3,0.3-0.4,0.6-0.4
		c0.4,0,1-0.7,1.1-1.2c-0.3,0.2-0.5,0.5-0.7,0.7c-0.6,0.6-1-0.4-1-0.9c-0.4,0.1-0.9,0.2-1.3,0.2c-0.3,0-1.2,1.1-1.4,1.4
		c-0.3,0.4-0.4,0.6-0.5,1.1C-355.2,277.1-355.5,277.4-355.6,277.6L-355.6,277.6z"/>
	<path class="st1" d="M-370.6,267.5c0.2,0.4,0,1.3,0.4,1.4c0.1,0,0.2,0.1,0.3,0.2c0.5,0.4,2.9-0.1,3.7-0.2c-0.1-0.6-0.3-1.1-0.1-1.7
		c0.1-0.3,0.2-1.4,0.2-1.7c-1.4,0.3-0.3-1.5-0.4-1.7c-0.1-0.3-0.3-0.5-0.3-0.9c-0.2,0-0.4-0.2-0.5-0.4c-0.3,0-0.5,0-0.8,0
		c-0.9-0.2-1.6-0.5-2.4-0.9c-0.4-0.2-0.7,0.1-1-0.2c-0.3-0.3,0.1-0.3-0.5-0.1c-0.2,0.1-0.6,0-0.6,0.3c0,0.5,0,1-0.4,1.3
		c-0.3,0.2-0.5,0.2-0.2,0.5c0.3,0.4,0,1.1,0.1,1.6c0,0.1,0.8,0.4,0.9,0.5c0.4,0.3,0.8,0.6,1.1,0.9
		C-370.8,266.7-370.9,267.2-370.6,267.5z"/>
	<path class="st1" d="M-347.9,274.8c-0.2,0-1.1-0.1-1.3-0.3c-0.1,0.7-0.7,1-0.9,1.6c0,0.2-0.1,0.3-0.2,0.4c-0.1,0-0.1,0.1-0.2,0.1
		c-0.5,0.2-0.4-0.2-0.6,0.4c-0.1,0.3-0.4,0.7-0.4,1.1c0,1.1-1.5,1.7-2.4,1.7c-0.8,0-1.2-0.2-1.7,0.8c3.4-0.5,6.8-1.1,10.2-1.8
		c-0.6-0.8-0.4-1.7-1-2.2c-0.4,0-1.4-0.2-1.6-0.6C-348.1,275.7-347.9,274.8-347.9,274.8C-348,274.8-347.9,274.8-347.9,274.8z"/>
	<path class="st1" d="M-402.9,272.2c-0.7-0.1-0.4-1.2-0.3-1.7c0.1-0.8-0.1-0.6-0.8-0.7c-0.9-0.1-1.8-0.3-2.8-0.5
		c-0.6,3.1-1.1,6.2-1.7,9.3c-0.1,0.5,0.5,0.4,1,0.5c0.8,0.1,1.5,0.2,2.3,0.4c1.3,0.2,2.7,0.4,4.1,0.6c0.2-1.9,0.5-3.8,0.7-5.8
		c0-0.1,0.3-1.8,0.2-1.8C-401.1,272.5-402,272.3-402.9,272.2z"/>
	<path class="st1" d="M-375.9,289.8c-0.3-0.3-0.9-0.5-1.3-0.5c-0.9-0.1-1.6,0.7-2.3,0.1c-0.4-0.4-0.9,0.7-1.4,0
		c-0.4-0.1-0.3,0-0.8,0c-0.2,0-0.4-0.1-0.6-0.3c-0.3-0.3-0.3-0.1-0.7-0.2c-0.7-0.3-3-0.8-3-1.8c0.1-0.9,0.1-1.9,0.1-2.8
		c-0.4,0-4.2-0.2-4.2-0.2c-0.1,1.6-0.2,3.3-0.4,4.9c-0.1,0.8-0.1,1.6-0.2,2.4c0,0.3,0.1,0.9-0.1,1.2c0,0.7-0.9,0.5-1.3,0.5
		c-1.5-0.1-3-0.2-4.5-0.4c0.7,0.7,1.5,1.5,2,2.4c0.6,1.1,0.6,1.9,1.6,2.7c0.3,0.2,0.6,0.4,0.9,0.6c0.3-0.5,0.7-1.1,1.3-1.4
		c1-0.5,2.2-0.2,3,0.6c1.3,1.2,1.8,3.1,3,4.4c0.3,0.3,0.2,0.7,0.3,1c0,0.4,0.5,1.2,0.8,1.6c0.2,0.2,0.6,0.1,0.8,0.2
		c0.5,0.2,0.9,0.3,1.3,0.4c-0.5-2,0-3.8,1.8-4.9c0.1-0.5,0.6-0.7,1-0.7c0.5,0,0.9-0.3,1.3-0.7c0.4-0.3,0.7-2.3,1.6-1.3
		c1.3-0.4,0.9-0.9,1.1-2c0.1-0.6,0.3-0.8,0-1.4c-0.2-0.4-0.6-0.9-0.7-1.3c-0.1-0.5,0-1.1-0.1-1.6c0-0.4,0-0.8,0-1.1
		C-375.4,289.8-375.6,290.1-375.9,289.8z"/>
	<path class="st1" d="M-358.5,284.4c0.2-0.7,0.8-1.1,1.4-1.4c0.4-0.2,0.7-0.6,1-0.9c0.2-0.2,0.8-0.4,1.1-0.5
		c-2.6,0.4-5.2,0.7-7.9,0.9c-0.6,0.1-1.2,0-1.6,0.4c-0.2,0.2-0.5,0.1-0.8,0.2c-0.2,0-1.6,0-1.6,0.2c-0.2,0.7-0.6,1.5-0.7,2.2
		c1.4-0.1,2.8-0.2,4.2-0.4C-363,284.9-358.6,284.8-358.5,284.4z"/>
	<path class="st1" d="M-390.6,268.1c1.7,0.1,3.4,0.2,5.1,0.3c1,0,1.9,0.1,2.9,0.1c0.4,0,0.6,0.2,0.9,0.4c0.6-0.4,1.3,0,1.8,0.1
		c0.1-0.5-0.3-1.1,0-1.4c0.2-0.3,0.1-0.7,0.1-1.1c0-0.7,0-1.4,0-2.1c0-0.4-0.8-0.6-0.6-1.2c-2.5,0-5.1-0.1-7.6-0.2
		c-0.7,0-1.3-0.1-2-0.1c-0.3,0-0.2,1.3-0.3,1.6C-390.7,265.6-390.6,266.9-390.6,268.1z"/>
	<path class="st1" d="M-355.6,285c0,0,2.9,2.6,3.4,3c0.8,0.7,0.5,1.2,1.7,0.6s1.3-1.7,1.9-2.7c0.3-0.5-0.9-1-1.3-1.3
		c-0.5-0.3-1.3,0.3-1.8,0.2c-0.6,0.1-0.4-0.6-0.9-0.6s-1,0-1.6,0.1C-354.5,284.5-355.4,284.8-355.6,285z"/>
	<path class="st1" d="M-352.4,272.8c1.2-0.2,2.5-0.4,3.7-0.7c1.3-0.3,2.8-0.4,3.7-1.4c-0.4-0.3-0.9-0.8-0.7-1.3
		c-0.2-0.3,0.2-1,0.2-1c-0.3-0.2-0.3-0.4-0.5-0.6c-0.5-0.5-3.3,0.5-3.9,0.6s-2.9,1-3.4,0.4c-0.2-0.2,0,1.6,0.1,1.7
		c0.1,0.8,0.3,1.6,0.4,2.4C-352.7,272.9-352.5,272.9-352.4,272.8z"/>
	<path class="st1" d="M-410.1,260.2c-0.4-0.5-1.2-0.5-1.8-0.6c-1.7-0.4-3.3,0-5-0.6c-0.7-0.2-1.5,0.3-2-0.6c-0.1-0.2,0-0.9-0.2-1
		c-0.5-0.2-0.5-0.3-0.7,0.4c-0.5,2-1.3,4-2.5,5.6c0.1,0.3-0.2,1.3-0.1,1.4c0.6,0.2,1.2,0.3,1.8,0.5c1,0.3,1.9,0.5,2.9,0.8
		c1.8,0.5,3.7,0.9,5.5,1.3c0.2-1.1,0.5-2.2,0.7-3.3c0.1-0.4,0.3-0.3,0.1-0.7c-0.3-0.5,0-1,0.4-1.4
		C-410.8,261.5-409.8,260.5-410.1,260.2z"/>
	<path class="st1" d="M-390.1,282.9c1.2,0.2,2.4,0.1,3.6,0.2c0.4,0,1.7-0.1,1.7,0.4c0,0.8-0.1,1.6-0.1,2.4c0,0.3,0,0.6,0,0.9
		c0,0.4,0.5,0.1,0.7,0.2c0.5,0.1,0.5,0.6,1.1,0.7c0.4,0,1.1-0.1,1.4,0.2c0.4,0.3-0.1,0.3,0.4,0.3c0.2,0,0.3,0.1,0.4,0.2
		c0.4,0.1,0.6-0.1,1-0.1s0.7,0.1,0.9,0.4c0.3-0.2,0.7-0.3,1-0.3c0.6-0.1,1.1-0.1,1.7,0.2c0-0.9,0-1.8,0-2.7c0-1-0.4-1.9-0.4-2.9
		c0-0.5-1.2-0.2-1.6-0.2c-1,0-2,0-3,0c-1.6,0-3.3-0.1-4.9-0.2c-0.7,0-1.4-0.1-2.2-0.1c-0.5,0-0.9,0-1.4-0.1
		C-390.1,282.2-390,282.6-390.1,282.9z"/>
	<path class="st1" d="M-359.6,275.6c0.8,0.1,0.9,0.7,1.7,0.6c0.7-0.1,1.1-0.3,1.7,0.2c0.1-0.7,0.6-1.4,1-1.9s0.8-0.2,0.9-1
		c0.1-0.5,0.1-0.9,0-1.4c-0.1-0.8-0.1-1.5-0.2-2.3c-0.8,0.5-1.7,1.6-2.8,1.4c-0.9-0.2-1.4-0.4-2.4-0.2c-0.4,0.1-0.5,0-0.4,0.4
		c0.1,0.6,0.1,1.1,0.2,1.7C-359.8,273.9-359.7,274.7-359.6,275.6z"/>
	<path class="st1" d="M-344,268.1c0.2-0.6,0.6-0.1,0.4-0.9c0-0.2-0.1-0.4-0.1-0.6c-0.2-0.5,0.1-1.1,0-1.6c0-0.4-0.2-1.1-0.4-1.3
		c-0.5-0.4-0.7-2.2-0.8-2.8c-0.5,0.1-0.9,0.3-1.4,0.3c-0.8,0.1-0.9,1.1-1.3,1.7c-0.4,0.5,0.1,0.6,0,1.1c0,0.6-0.6,1.3-1.2,1.6
		c-0.9,0.4-1.8,0.1-2.7,0.4c0.5,0.8-0.2,1.5-0.7,2.1c1.5-0.3,3.1-0.6,4.6-0.9c1-0.2,1.7-0.6,2.5,0.3
		C-344.7,267.8-344.5,268-344,268.1z"/>
	<path class="st1" d="M-410.7,280.6c0.3-0.1,0.6-0.1,0.9,0.1c0.3-1.2,0.4-2.7,0.7-4c0.4-2,0.7-4,1.1-5.9c0.1-0.5,0.2-1,0.3-1.5
		c0-0.2-1.4-0.3-1.6-0.4c-1.4-0.3-2.8-0.6-4.2-0.9c-0.6-0.1-1.2-0.3-1.9-0.4c-0.9-0.2-0.7,0-0.9,0.8c-0.4,1.5-0.7,3-1.1,4.5
		c-0.1,0.2,0.5,0.8,0.6,0.9c0.6,0.8,1.1,1.6,1.7,2.5c0.9,1.3,1.7,2.5,2.6,3.8c0.5,0.7,0.9,1.3,1.4,2
		C-411.2,281.6-411.3,280.9-410.7,280.6C-410.5,280.6-411.3,280.9-410.7,280.6z"/>
	<path class="st1" d="M-398.2,291.7c0.3-0.6,1.6-0.2,2.1-0.1c1.5,0.1,2.9,0.2,4.4,0.3c0.2-2.8,0.4-5.6,0.6-8.4c0-0.3,0-0.7,0.1-1
		c0.3-0.6-0.9-0.4-1.3-0.4c-1.3-0.1-2.6-0.2-3.9-0.3c-0.6-0.1-1.2-0.1-1.8-0.2c-0.4,0-1.9-0.5-2.2-0.3c-0.1,0.1-0.1,0.9-0.1,1
		c-0.1,0.8-0.2,1.6-0.3,2.4c-0.2,1.9-0.5,3.9-0.7,5.8c-0.1,0.6-0.1,1.1-0.2,1.7c-0.1,0.4,0.8,0.3,1.1,0.4
		C-400.4,290.9-398.6,292.5-398.2,291.7z"/>
	<path class="st1" d="M-381.7,270c-0.4,0-0.6-0.4-1-0.5s-0.9,0-1.3,0c-0.8,0-1.6-0.1-2.4-0.1c-1.4,0-2.8-0.1-4.2-0.2
		c-0.1,0.8-0.1,1.5-0.2,2.3c-0.1,1-0.2,1,0.8,1.1c0.6,0,1.5-0.1,2,0.1c0.6,0.3,0.2,1.7,0.2,2.1c3.1,0.2,6.3,0.2,9.4,0.2
		c-0.5-0.7-0.3-1.6-0.5-2.3c-0.7-0.3-0.4-1.8-1-2.3C-380.5,269.9-381,269.8-381.7,270z"/>
	<path class="st1" d="M-385,262c1.7,0,3.3,0.1,5,0.1c-0.1-0.4-0.3-0.7-0.3-1.1c0-0.7,0-1.7-0.3-2.3c-0.2-0.5-0.4-1.3-0.2-1.9
		c0.1-0.3-0.7-0.2-0.8-0.2c-1.5,0-3-0.1-4.4-0.1c-0.7,0-1.4,0-2.1-0.1c-0.6,0-1.5-0.5-1.6,0.3c-0.1,1.7-0.2,3.4-0.4,5.1
		C-388.4,261.9-386.7,262-385,262z"/>
	<path class="st1" d="M-353.6,281.5c-0.3,0.6-0.8,0.9-1.3,1.2c-0.3,0.2-0.5,0.2-0.7,0.4c-0.4,0.4-1.3,0.7-1.5,1.1
		c1-0.1,1.8-0.8,2.8-0.9c0.7-0.1,1.6-0.3,2.2-0.1c0.2,0.1,0.6,0.5,0.7,0.5c0.3-0.1,0.7-0.1,1-0.2c0.9-0.1,1.1,0.2,1.8,0.7
		c0.6,0.5,0.9,0.8,1.6,0.7c0-0.5,0.3-0.9,0.6-1.3c0.2-0.2,0.5-0.5,0.7-0.6c-0.2-0.3-0.1-0.6,0.2-0.7c-0.5-0.1-0.9-0.8-0.3-1.1
		c0.4-0.2,1.4,0.3,1.6-0.3c-0.4,0-2.6,0.1-1.7-1c-1.4,0.3-2.7,0.5-4.1,0.8C-350.7,280.9-353.4,281-353.6,281.5z"/>
	<path class="st1" d="M-402.7,263.4c0.2-0.3,0.5-0.1,0.6-0.4c0-0.1,0.1-0.1,0.1-0.2c0.1-0.1,0.3-0.2,0.4-0.1c1,0.2,2,0.3,3,0.4
		c2.4,0.3,4.7,0.5,7.1,0.7c0.2-2.5,0.3-4.9,0.5-7.4c0,0-6.4-0.7-7.1-0.8c-2.4-0.3-4.9-0.7-7.3-1.1c-0.5-0.1-1.1-0.2-1.6-0.3
		c-0.1,0-0.4,1.4-0.3,1.7c0.2,0.4,0.2,0.9,0.5,1.3s0.5,0.7,0.7,1.2c0.1,0.2,0.5,0.1,0.6,0.4c0.2,0.5-0.4,1.4-0.5,1.9
		c0.8-0.5,1.1,1.1,1.1,1.6c0.1,0.6,0.6,0.6,0.6,1.2C-403.6,263.2-403.1,263.3-402.7,263.4C-402.6,263.2-403.1,263.3-402.7,263.4z"/>
	<path class="st1" d="M-368.1,286.5c-0.3,0.6-0.6,1.3-0.9,1.9c-0.2,0.7-0.3,1.3-0.2,2.1c0,0.3,0.1,0.4,0.2,0.7
		c0.7,1.1-0.5,2-0.7,3.1c0.8-0.1,2.1-0.4,2.8-0.2c0.6,0,0.7,0.6,0.5,1c-0.3,0.8,1.1,0.1,1.5,0.2c-0.4-3-0.3-5.9-0.3-8.9
		C-366.1,286.3-367.1,286.4-368.1,286.5z"/>
	<path class="st1" d="M-379,262.7c0,0.3-0.1,0.5-0.3,0.7c0.9,0.5,0.5,3.1,0.5,4c2.3,0,4.6-0.1,7-0.2c-0.1-0.3-0.7-0.4-0.9-0.8
		c-0.4-0.6-1.2-0.4-1.4-1.2c-0.1-0.4-0.1-0.8-0.1-1.1c0.1-0.6-0.5-0.9-0.1-1.5c0.5-0.7,0.6-0.5,0.6-1.4c0-0.2,0.1-0.5,0.2-0.7
		s0.4-0.4,0.6-0.6c0.6-0.5,1-1.3,1.7-1.7c-0.4-0.1-0.7,0.4-1.3,0.2c-0.2-0.1-0.4-0.2-0.5-0.3c-0.2-0.1-0.3,0.1-0.5,0
		c-0.5-0.1-0.7-0.7-1.1-0.7s-0.7,0.5-1.1,0.2c-0.3-0.2-0.7-0.2-1-0.3c-0.5-0.1-0.4-0.6-0.9-0.6c-0.7,0-1.4,0-2.1,0
		c0.1,0.4-0.1,0.9,0,1.3c0.3,1,0.4,2,0.5,3.1C-379.3,261.6-379,262.1-379,262.7z"/>
	<path class="st1" d="M-367.6,282.3c0.1-0.1,0.2-0.3,0.3-0.3c-0.6-0.4-0.5-1.2-0.8-1.7c-1.1,0.3-1.6-1.4-1.3-2.1
		c-0.9,0.2-0.6-0.9-1.2-1.2c-0.4-0.3-0.8-0.7-1-1.1c-0.4-0.9,0.1-1.2-1.1-1.1c-1.5,0.2-3,0.2-4.6,0.2c0.3,0.4,0.2,0.3,0.7,0.6
		c0.6,0.4,0.1,1,0.3,1.4c0.2,0.4,0.5,0.4,0.5,0.9c0,1.6,0.1,3.2,0.1,4.8c1.5,0,3-0.1,4.5-0.2c0.8-0.1,2.6-0.6,3.2,0.3
		C-367.8,282.5-367.7,282.4-367.6,282.3z"/>
	<path class="st1" d="M-369.9,291.7c-0.5-0.7-0.1-0.8-1-0.7c-0.5,0-1,0.1-1.5,0.1c-0.3,0-2,0-1.9,0.1c0,0.4,0,0.9,0,1.3
		s0.6,1.2,0.8,1.6c0.3,0.7-0.1,1.2-0.1,1.8c0,0.3,0.1,0.7,0,1c0.7-0.1,1.3,0.4,2,0.4c0.2-0.7,1.1-0.5,1.6-0.3
		c0.4,0.2,1.1,0.5,1.3,0.9c0.4,0.2,0.8-0.8,1.1-0.9c-0.6,0-1.2-0.6-0.8-1.3c0.3-0.5,0.8-0.2,0.9-0.8c-0.8,0.1-2,0.4-2.8,0.2
		C-371.9,295.4-369.7,292.2-369.9,291.7C-370,291.5-369.8,291.7-369.9,291.7z"/>
	<path class="st1" d="M-359.5,276.9c-0.1,0.3-0.4,0.6-0.7,0.6c-0.3,0.1-0.5,0.5-0.7,0.8c-0.2,0.2-0.1,0.5-0.3,0.7
		c-0.4,0.3-0.7,0.1-1,0.4c-0.2,0.2-1.1,0.4-1.4,0.3c-0.4-0.1-0.5,0-0.9,0.1c-0.1,0-0.5,1.2-0.5,1.3c-0.1,0.5-0.7,0.5-1.1,0.4
		c0,0.1,0,0.2,0,0.4c0.9-0.1,1.4-0.5,2.3-0.5c1.6-0.1,3.3-0.3,4.9-0.5c0.8-0.1,1.9-0.1,2.4-0.9c0.2-0.5,0.5-0.7,0.9-1
		c-0.4-0.3-1.1-1-1-1.6c0.1-0.4-0.6-0.1-0.7-0.1c-0.3,0-0.6,0-0.9,0C-358.6,277.3-359.5,276.8-359.5,276.9z"/>
	<path class="st1" d="M-380.2,276c-2.6,0-5.2-0.1-7.7-0.2c-0.1,1.8-0.2,3.6-0.3,5.4c3.8,0.2,7.7,0.2,11.5,0.2c0-1,0.4-3.2-0.3-4
		c-0.2-0.3-0.5-0.6-0.6-1c-0.1-0.5,0.1-0.5-0.3-0.4C-378.6,276-379.4,276-380.2,276z"/>
	<path class="st1" d="M-364,278.7c0.4,0,0.6-0.2,1-0.1c0.3-0.6,0.8-0.3,1.2-0.7c0.3-0.5,0.5-1.4,1.2-1.3c-0.2-0.5-0.1-1.3-0.2-1.9
		c-0.1-1.2-0.3-2.4-0.4-3.6c-0.8,0.1-1.5,0.2-2.3,0.3c-1.2,0.1-0.9,0.9-0.8,1.8c0.1,1,0.2,1.9,0.3,2.9c0.1,0.9,0.2,1.9-0.4,2.8
		C-364.3,278.7-364.2,278.7-364,278.7z"/>
	<path class="st1" d="M-368.8,270.3c0.3,0.5,0.1,1.2-0.3,1.6c-0.2,0.3-0.5,0.5-0.9,0.6c0.2,0.2,0.2,0.5,0.1,0.8
		c-0.4,0.9-1.2,1.7-0.2,2.5c0.4,0.3,0.8,0.6,0.9,1.1c0.8-0.1,1.2,0.7,0.9,1.4c-0.2,0.6-0.1,0.7,0.6,0.9c0.6,0.2,0.7,0.9,0.8,1.4
		c0.3-0.2,0.6,0,0.8-0.3c0.3-0.4,0.4-0.2,0.5-0.7c0.1-0.1,0-0.7,0-0.8c0.1-0.5,0.8-1.2,0.6-1.7c-0.3-0.5-0.1-1.4-0.2-2
		c-0.1-1.3,0-3-0.6-4.2c-0.2-0.3-0.2-0.9-0.5-0.9c-0.4,0-0.7,0.1-1.1,0.1c-0.5,0-1,0.1-1.5,0.1
		C-368.9,270.2-368.9,270.3-368.8,270.3z"/>
	<path class="st1" d="M-408,255.5c0.1-0.4,0.2-0.8,0.2-1.2c0.1-0.5-0.1-0.4-0.6-0.5c-0.2,1.1-0.5,2.3-0.7,3.4
		c-0.1,0.6-0.6,1.9-0.1,2.5c0.6,0.8,0.1,1.2-0.3,1.9c-0.1,0.2-0.9,1.1-0.8,1.2c0.3,0.4,0.1,1.1-0.2,1.5c-0.3,1-0.4,2.1-0.7,3.2
		c2.7,0.6,5.5,1.1,8.3,1.5c0.2-1.5,0.4-2.9,0.6-4.4c-0.1,0-0.3,0-0.4-0.1c-0.3-0.1-0.7-0.1-1.1-0.1s-0.7,0.5-1.1,0.1
		c-0.2-0.2-0.3-0.4-0.4-0.7c-0.1-0.4-0.4-0.4-0.5-0.8c-0.1-0.3-0.1-0.7-0.2-1c-0.1-0.5-0.7-0.1-1-0.6c-0.4-0.6,0.1-1.6,0.3-2.2
		c0-0.1-0.6-1-0.7-1.2C-408,257-408,256.7-408,255.5z"/>
	<path class="st1" d="M-372.8,268.3c-2,0.1-4.1,0.2-6.1,0.2c0.1,0.4-0.2,0.7-0.1,1.1c0.4,1.4,1,2.6,1.1,4.1c0.2,0.2,1.3,0,1.7,0
		c0.7,0,1.3,0,2-0.1c0.6,0,2.4-0.5,2.9,0c0.3-0.6-0.3-1.2,0.3-1.7c0.6-0.6,1.8-0.5,0.6-1.5c-0.7-0.6-1.3-1.1-1.2-2.1
		C-371.9,268.2-372.3,268.3-372.8,268.3z"/>
	<path class="st1" d="M-358,285.4c-0.5,0.1-1.1,0.1-1.6,0.2c0.3,1.2,0.7,2.3,1,3.5c0.2,0.6,0.6,1,0.8,1.6c0.1,0.4-0.2,0.7-0.2,1.1
		c0.1,0.3,0.2,0.6,0.2,1c0.1,0.6,0.2,0.9,0.9,0.8c1.3-0.1,2.5-0.2,3.8-0.3c0.1,0,0.4-0.6,0.8-0.6c0.2,0,0.4-1.4,0.4-1.5
		c0.2-0.7,0.2-0.5-0.1-1c-0.2-0.4-0.5-0.9-0.8-1.3c-0.8-0.8-1.7-1.4-2.5-2.2c-0.4-0.4-0.4-0.5-0.8-0.7c-0.3-0.1-0.6-0.4-0.7-0.7
		C-356.8,285.1-357.7,285.4-358,285.4z"/>
	<path class="st1" d="M-347.4,302.6c-0.2-1.2-0.4-2-1.1-3.1c-0.4-0.7-1-1.4-1.2-2.2c0.7,0.4,0.5,1,0.9,1.5c-0.2-0.3-0.2-0.7-0.3-1
		c-0.1-0.4-0.6-0.8-0.9-1.2c-0.4-0.6-0.8-1.2-1.1-1.8c-0.3-0.6-0.3-1-0.9-1.1c0,0.4-0.1,0.9-0.6,0.9c-0.5,0.1-0.7-0.3-1.2-0.3
		c-0.7,0.1-1.4,0.1-2.1,0.1c-0.6,0-1.2,0.1-1.8,0.1c-0.6,0-0.6-0.5-1.1-0.5c-1.1,0.1-2.2,0.3-3.3,0.4c0.1,0.2,0.2,0.6,0.1,0.8
		c1-0.3,2-0.3,2.9,0.2c0.4,0.2,0.6,0.8,1,0.7c0.4-0.1,0.7-0.3,1-0.5c0.4-0.2,0.2-0.4,0.5-0.5c1.1-0.3,1.6,1,2.3,1.5
		c0.7,0.5,1.1,0.5,1.1,1.5c0,0.4-0.1,0.9-0.1,1.3c0,0.2,0.2,0.7,0.4,0.4c0.5-0.8,0.5-0.1,0.1,0.4c-0.3,0.3,0.8,1.3,1.1,1.4
		c-0.1-0.1-0.1-0.2-0.1-0.3c0.3,0.3,0.8,1,0.9,1.5c0.3,0.7,1.1,0.7,1.5,1.3c0.1,0.2,0.2,0.7,0.3,0.7c0.5,0,0.7-0.1,0.8-0.6
		c0-0.4,0.4-0.6,0.6-0.9C-347.4,303.2-347.3,303-347.4,302.6z M-348.1,304.2c0-0.2,0-0.4,0-0.6
		C-348.1,303.4-348.2,304.4-348.1,304.2C-348.2,304-348.1,304.2-348.1,304.2z"/>
	<path class="st1" d="M-395.3,280.8c2,0.2,4,0.3,6.1,0.4c0.1-2.5,0.2-5.1,0.4-7.6c-3-0.1-5.9-0.4-8.8-0.7c-0.3,0-1.4-0.3-1.4-0.1
		c-0.1,0.8-0.2,1.6-0.3,2.4c-0.2,1.7-0.4,3.4-0.6,5C-398.5,280.5-396.9,280.6-395.3,280.8z"/>
	<path class="st1" d="M-411.1,284.6c-0.1-1.6-1.8-3.2-2.7-4.5c-1.5-2.2-3-4.4-4.5-6.6c-0.4-0.6,0.1-1.6,0.3-2.3c0.3-1.3,0.6-2.7,1-4
		c0,0-5.4-1.6-5.8-1.7c-0.2,0.9-0.4,1.6-0.8,2.4s0.3,1.5,0.1,2.4c-0.2,1-0.3,1.6,0.2,2.6c0.4,0.7,0.2,1.1,0.8,1.6
		c0.1-1.1,1.5-0.6,1.8,0.1c-0.3-0.3-1-0.5-1.4-0.5c-0.5,0.1,0.1,1.1,0.1,1.3c-0.3-0.3-0.4-0.5-0.4-0.9c-0.6,0.5-0.1,1.5,0.1,2.1
		s-0.1,0.8-0.1,1.4c0,0.7,0.6,1.3,0.9,1.9c0.1,0.2,0.5,0.9,0.5,1.1c-0.1,0.4-0.3,0.5-0.1,0.9c0.4,0.7,1.2,1,1.9,1.4
		c0.3,0.2,0.6,0.3,0.9,0.5c0.5,0.3,0.3,0.6,0.5,1c0.4,0.5,1,0.6,1.3,1.3c0.1,0.4-0.1,1.7,0.4,1.7c1,0.1,2,0.2,3,0.3
		c0.7,0.1,0.8-0.2,0.8-0.6c0-0.2,0-0.5,0.1-0.8c0.1-0.2,0.2-0.4,0.4-0.5c0.2-0.2,0.2-0.5,0.3-0.8
		C-411.1,284.9-411.2,285.3-411.1,284.6C-411.1,284.6-411.2,284.8-411.1,284.6z M-421.5,274.9c-0.1,0-0.1,0-0.1-0.1
		C-421.6,274.8-421.6,274.8-421.5,274.9C-421.6,274.9-421.6,274.8-421.5,274.9z M-421.8,276c-0.1,0-0.1,0.1-0.2,0.1
		C-422,276-421.9,275.9-421.8,276L-421.8,276z"/>
	<path class="st1" d="M-401.8,281.1c-2.3-0.3-4.6-0.6-6.8-1.1c-0.1,0.6-0.4,2.5-1.5,1.8c0,0.5-0.4,1.6-0.2,2
		c0.2,0.4,0.7,1.2,0.4,1.7c-0.1,0.2-0.3,0.3-0.4,0.3c-0.3,0.1-0.2,0.5-0.3,0.8c-0.2,0.4-0.7,0.5-0.3,0.9c0.4,0.4,0.2,0.9-0.2,1.1
		c1.5,0.9,3,1.8,4.6,2.6c0.9,0.5,1.5,0.6,2.6,0.8c0.6,0.1,1.4,0.5,1.5-0.2c0.3-2.1,0.5-4.3,0.8-6.4c0.1-0.7,0.2-1.5,0.3-2.2
		C-401.4,282.6-400.8,281.1-401.8,281.1z"/>
	<path class="st1" d="M-369,285.7c0.2-0.5,0.4-0.9,0.6-1.4c-0.6,0.2-1-0.5-0.7-1.1c-2.1,0.1-4.3,0.3-6.4,0.3
		c0.3,1.1,0.3,2.2,0.3,3.3c0,0.6,0,1.3,0,1.9c0,0,0.8,0.1,0.8,0.6c0.1,0.2,0,0.4,0,0.6c0.5,0,4.1,0,4.1-0.4
		C-370.8,288.5-369.4,286.8-369,285.7z"/>
	<path class="st1" d="M-362.8,293.6c1.3-0.1,2.6-0.3,3.9-0.4c-0.1-0.4-0.3-0.9-0.3-1.4c0-0.3,0.1-0.6,0.2-0.9
		c-0.1-0.2-0.3-0.4-0.4-0.6c-0.4-0.8-0.6-1.7-0.8-2.5c0-0.2-0.5-2-0.6-2c-0.9,0.1-1.9,0.2-2.8,0.3c-0.7,0.1-0.5,0.2-0.5,0.8
		c0,1.1,0,2.2-0.1,3.3c0,1.5,0,2.7,0.2,4.2c0.6-0.3,0.3,0.1,0.5-0.3C-363.3,293.9-363.1,293.7-362.8,293.6z"/>
	<path class="st1" d="M-418.3,256.7c-0.3-0.1-0.4-0.3-0.7-0.4c-0.5-0.1-0.3-0.3-0.2-0.7c-0.1,0.6,0.2,0.3,0.2,0
		c0-0.2-0.2-0.4-0.1-0.6c0.1,0.1,0.3,0,0.4,0c-0.1-0.1-0.3-0.4-0.4-0.1c-0.1-0.9,0.1-2,0-2.8c0.7,0.5,1.5,0.9,2.2,1.4
		c0-0.1,0.1-0.2,0.1-0.2c0,0.3,0.4,0.7,0,0.8c0,0.1,0,0.8,0.1,0.8c0.3,0.1,0.4-2,0.5-2.3c0.2-0.1-0.3-1,0-0.9
		c0.4,0.1,0.8,0.2,1.2,0.3c1.3,0.3,2.6,0.7,3.9,1c0.6,0.1,1.3,0.3,1.9,0.4c0.4,0.1,0,1-0.1,1.3c-0.3,1.4-0.9,3-0.7,4.5
		c-0.9-0.2-1.9-0.5-2.8-0.6c-1.2,0.1-2.3,0.1-3.4-0.3c-0.5-0.2-1.2,0.2-1.6-0.3C-418.2,257.5-417.7,257.1-418.3,256.7"/>
	<path class="st1" d="M-344.6,271.4c-0.2,0.4-0.3,0.7-0.2,1.1c0,0.2,0.4,0.4,0.5,0.6c0.6-0.3,0.2,0.5,0.4,0.5c0.2,0,1.9-3.9,0.3-3.5
		c0-0.4,0.6-1.2,0.1-1.3c-0.4-0.1-1.3-0.7-1.4-0.1c-0.1,0.5-0.4,0.9-0.2,1.4C-344.7,270.7-343.8,270.8-344.6,271.4"/>
	<path class="st1" d="M-342,259.8c0,0.2,0,0.5,0.1,0.6c0,0.3-0.4,0.7-0.3,1.1c-0.1,0.5-0.4,2.1,0.1,2.4c-0.4,0.1-0.9,0.4-1,0
		c0-0.1-0.3-1.4-0.4-1.1c-0.1-0.7-0.2-1.7-0.5-2.4C-343.4,260.2-342.7,260-342,259.8"/>
	<path class="st1" d="M-339.6,263.3c-0.2,0.1-0.4,0.4-0.6,0.5c-0.4,0.1-0.8,0.2-1.2,0.3c-0.6,0.1-0.4-1.5-0.3-1.9
		c0.1-0.7,0.3-1.2,0.3-1.8c0.1-0.5-0.1-0.7,0.4-1c0.3,0.8,0.5,1.5,0.8,2.3C-340.1,262.3-339.7,262.7-339.6,263.3z"/>
	<path class="st1" d="M-370.1,260.5c0.5-0.2,0.8-0.5,1.4-0.7c0.5-0.1,1.4-1.6,1.5-0.2c0,0,0-0.1-0.1-0.1c0,0.1,0,0.2,0,0.4
		c0.7-1,1.2,0.1,1.8,0.4c1.1,0.4,2.2-1,3.3-0.9c-0.2,0.8,0.4,0.6,0.9,0.5c0.1,0,0.9,0.8,0.9,0.9c-0.3,0.1-1.4-0.1-1.2,0.5
		c-0.3-0.2-1-0.7-1.2-0.3c-0.4,0.5-1,0.2-1.3,0.8c-0.3-0.3-0.4-0.1-0.7,0.2c-0.1-0.1-0.1-0.3-0.1-0.4c-0.3,0.6-0.5,1.2-0.8,1.8
		c-0.2-0.1-0.3-0.3-0.1-0.6c-0.5,0.2-0.2-0.3-0.3-0.6c0-0.2-0.8-0.7-1-0.7c-0.6-0.1-1.1-0.1-1.7-0.3
		C-369.3,261-369.5,260.8-370.1,260.5"/>
	<path class="st1" d="M-360.4,270.2c0.6-0.1,1.2-0.2,1.8-0.3c0.9-0.2,0.5-1.8,1.3-2.2c0.1,0,0.1,0.1,0.1,0.2
		c0.7-0.4-0.2-2.4-0.5-2.9c-0.8-1.1-1.5,1.6-1.9,0.5c-0.2-0.5,0.8-1,0.8-1.4c0-0.3-0.5-1.4-0.3-1.5c0.4-0.3-3.7-2-2.5-0.3
		c-1.3-0.1-1.9,2.4-1.9,3.3c0,1.4,1.6,3.6-0.1,4.8c1.1-0.1,2.2-0.2,3.2-0.4"/>
	<path class="st1" d="M-339.6,266.2c0.2,0.1,0.4,0.2,0.4,0.5c0.2-0.1,0.4-0.6,0.6-0.6c0,0.1,0,0.2,0.1,0.4c0.3-0.2,0.6-0.3,0.9-0.5
		c0.5-0.3-0.1-0.8-0.5-0.9c0.5,0.2,0.7,0.9,0,0.8c-0.2,0-0.7-0.6-0.5-0.5c-0.2-0.4-0.7-0.2-0.8-0.5c0.1-0.1,0.6-0.7,0.5-0.8
		c-0.3,0-0.4-0.1-0.4-0.4c-0.4,0.1-0.5,0.5-1,0.6s-0.9,0.2-1.4,0.3c-0.4,0.1-0.7,0.1-1.1,0.2s-0.2,0.8-0.2,1.1
		c0,0.8,0.8,0.3,1.4,0.2c0.4-0.1,0.8-0.2,1.2-0.3C-339.8,265.8-340.1,265.8-339.6,266.2"/>
	<path class="st1" d="M-340.5,258.3c0.4-0.1,0.7-1.3,0.8-1.7c0-0.9,0-1.7,0.3-2.6c0-0.1,0.2-0.9,0.3-0.9c0.3-0.1,0.4,0.6,0.7,0.3
		c0.3,0,0.4-0.4,0.6-0.5s0.9,0.2,1,0.5c0.2,0.7,0.7,1.5,0.7,2.3c0,0.6,0.4,0.3,0.7,0.5c0.1,0.1,0.1,0.7,0.2,0.7
		c0.2,0.2,0.8,0,0.7,0.4c0,0-0.2,0.3,0,0.3c0,0,0.2-0.2,0.2,0.1c-0.1,0.9-2,0.9-1.9,1.8c-0.1,0-0.2-0.1-0.4-0.1
		c0-0.2,0.1-0.2-0.1-0.4c-0.3,0.5,0.1,1.3-0.5,1.4c-0.1,0-0.5,1.3-0.9,0.7c-0.4,0.6-0.2,1.4-0.5,1.9
		C-339.7,261.8-340,259.7-340.5,258.3"/>
	<path class="st1" d="M-403.6,299.2c0.6-0.1,0.4-1.5-0.3-1.1C-404.7,298.6-404.4,298.9-403.6,299.2
		C-403.5,299.2-403.8,299.1-403.6,299.2z"/>
	<path class="st1" d="M-395.3,302.9c0.7-0.1,1.5-0.8,0.3-1c-0.2,0-0.9-0.3-1.1-0.2C-396.4,301.8-395.5,302.7-395.3,302.9
		C-395.2,302.8-395.5,302.7-395.3,302.9z"/>
	<path class="st1" d="M-393.4,307.4c0.3,0.2,0.6-0.5,0.8-0.6c0.4-0.3,0.9-0.3,1.4-0.6c0.7-0.5-1.5-1.9-1.9-2.1
		c-0.1,0-1.2-0.6-0.7,0.1c0.3,0.5-0.3,0.6-0.4,1s0.2,0.7,0.4,1.1C-393.6,306.9-394.1,306.9-393.4,307.4"/>
	<path class="st1" d="M-399.2,300.9c0.8-0.2-0.2-1.5-0.8-1c-0.1,0.1-0.5,0-0.2,0.4C-400,300.8-399.7,300.8-399.2,300.9
		C-399.1,300.9-399.4,300.9-399.2,300.9z"/>
	<path class="st1" d="M-396.7,301.5c0.2-0.1,0.4-0.1,0.3-0.4c-0.3,0-0.6,0-0.9,0c-0.3-0.2-0.5-0.1-0.6,0.3
		C-397.4,301.4-397.1,301.5-396.7,301.5C-396.5,301.5-396.9,301.5-396.7,301.5z"/>
	<path class="st1" d="M-396.8,302.4c0.6-0.2-0.1-0.6-0.4-0.5C-397,302.1-396.9,302.3-396.8,302.4
		C-396.7,302.4-396.9,302.3-396.8,302.4z"/>
	<path class="st1" d="M-413.8,305.4c0.2-0.3,0.2-0.3,0.5-0.2C-413,305.2-413.9,305.7-413.8,305.4
		C-413.7,305.3-413.8,305.6-413.8,305.4z"/>
	<path class="st1" d="M-422.2,300c-0.3,0.2-0.3-0.2-0.2-0.3c0.2,0.2,0.6,0.2,0.9,0.4c0.5,0.3,0.2,0.1-0.1,0.4
		C-421.7,300.3-422,299.9-422.2,300C-422.4,300.2-422,299.9-422.2,300z"/>
	<path class="st1" d="M-420.8,303.6c-0.2-0.3,0.2-0.3,0.5-0.3C-419.9,303.3-420.2,304.1-420.8,303.6
		C-420.9,303.5-420.7,303.7-420.8,303.6z"/>
	<path class="st1" d="M-420.1,309c0.1-0.1,0.8-0.8,0.9-0.2C-419.3,309-420.2,309.3-420.1,309C-420,308.9-420.2,309.1-420.1,309z"/>
	<path class="st1" d="M-413.8,306.4c-0.4,0.3,0,0.5-0.6,0.2c-0.4-0.2,0-0.6,0.2-0.7c0.1-0.1,0.3-0.1,0.4-0.3
		c0.1-0.3,0.6,0.3,0.6,0.3C-413.4,306.2-413.7,306.2-413.8,306.4C-413.9,306.5-413.7,306.3-413.8,306.4z"/>
	<path class="st1" d="M-421.9,309.9c-0.1,0.2-0.6,0.4-0.8,0.5C-422.5,310.3-422.1,309.6-421.9,309.9
		C-421.9,310.1-422.1,309.7-421.9,309.9z"/>
	<path class="st1" d="M-421.8,310.2c0,0.1,0.5-0.7,0.6-0.7C-420.3,309.4-421.8,310.1-421.8,310.2z"/>
	<path class="st1" d="M-405,303.9c-1.2-0.4,0.9-1,0.6-0.1c-0.1,0.3-0.3-0.4-0.4,0.2C-404.9,304-405,303.9-405,303.9
		C-405.2,303.8-405,303.9-405,303.9z"/>
	<path class="st1" d="M-404.3,303.7c-0.2-0.1-0.5-0.5-0.5-0.7c0.2,0.1,1.5,0.7,0.6,1.1C-404.1,304-404.2,303.8-404.3,303.7
		C-404.4,303.6-404.1,303.8-404.3,303.7z"/>
	<path class="st1" d="M-404.2,304.6c-0.2-0.1-0.6-0.6-0.5-0.8c0.4,0.1,0.9,0.6,0.9,1.1C-404,304.8-404.1,304.8-404.2,304.6
		C-404.4,304.5-404.1,304.7-404.2,304.6z"/>
	<path class="st1" d="M-403.6,304.8c0,0-0.4-0.6-0.2-0.6C-403.5,304.2-403.6,304.8-403.6,304.8
		C-403.8,304.6-403.6,304.8-403.6,304.8z"/>
	<path class="st1" d="M-403.4,304.5c0,0-0.4-0.5-0.3-0.5c0-0.1,0.3-0.1,0.4-0.1C-403,304-403.4,304.3-403.4,304.5"/>
	<path class="st1" d="M-403.2,304.7c-0.1,0-0.2,0-0.2-0.1c0.2,0,0.7,0.1,0.8,0.3c0,0.1,1,0.8,0.5,0.8c-0.1,0-0.4-0.3-0.7-0.3
		C-403,305.4-403,304.8-403.2,304.7"/>
	<path class="st1" d="M-402.8,304.3c0.1,0.1,0.2,0.2,0.3,0.3C-402.7,304.9-403,304.3-402.8,304.3
		C-402.7,304.4-402.9,304.3-402.8,304.3z"/>
	<path class="st1" d="M-402,305c-0.1,0-0.2-0.5-0.1-0.6c0.2-0.2,0.4,0.5,0.4,0.6C-401.8,305.1-401.9,305-402,305
		C-402.2,305-401.9,305-402,305z"/>
	<path class="st1" d="M-408.3,302.1c0.2,0.5,0.9-0.4,0.9-0.1s1,0.6,1.2,0.9c0.4-0.7,0.4-1.4,1.2-0.7c1.1,0.1,1.7,1.8,2.8,1.7
		c0.2,0,0.7,0.1,0.7,0.4c0,0.2,0.6,0.8,0.2,1.1c-0.3,0.1-0.3-0.5-0.4-0.7c-0.6-0.8-0.4,0.2-0.6,0.3c-0.2,0.1-0.2-0.7-0.4-0.8
		c-0.1,0-0.9-0.4-1-0.4c-0.3-0.3-0.8-1.3-1.2-0.6c0.1-0.1-0.6,0.2-0.7,0.2c-0.1,0.1-0.7-0.3-0.9-0.4c-0.3-0.1-0.9-0.1-1-0.4
		c-0.1-0.4-0.5,0.1-0.8,0.1c-0.5-0.1-0.7-0.1-1.1,0.1s-0.4-0.1-0.8-0.2s-1.5-0.1-1.7-0.4c0,0.3,0.2,0.6,0.1,1
		c-0.1,0.2-0.4,0.1-0.6,0.4s-0.6,0.9-1,0.9c-0.2,0,0.2-0.5,0.2-0.6c-0.8,0.6,0.3-1.9,0.4-1.4c-0.2-0.5-0.9,0.5-1,0.6
		c-0.1,0.3-0.1,0.7-0.3,0.9c-0.2,0.2-0.5,0.4-0.6,0.7c0.1,0.1,0.5,0,0.5,0.2c0,0.1-0.4,0.7-0.4,0.7c-0.3,0.1-0.6,0.4-0.9,0.7
		c-0.2,0.2-0.1,0.7-0.6,0.7c-0.1,0-1.1,1.3-1.3,1c0,0.1-1.2,0.4-1.2,0.4c-0.4,0.3-1.3,0.6-0.5,0c0.3-0.2,0.3-0.5,0.7-0.6
		c0.3-0.1,0.3,0.3,0.5,0c0.4-0.6,0.8-0.7,1.2-1.3c0.1-0.2,0.7-1.4,0.6-1.5c-0.1-0.2-0.6,0.4-0.8-0.1c-0.1,0.1,0.1,0.4-0.1,0.5
		c-0.1,0.1-0.4-0.4-0.4-0.5c-0.2,0.3-0.3-0.2-0.6,0c-0.1,0-0.3,0.3-0.5,0.3s0.3-1.6-0.5-1.4c-0.1,0.1-0.8,0.3-0.7-0.1
		c-0.4-0.7-0.4-0.4-0.2-1.1c-0.5,0-0.2-0.4-0.6-0.4c0-0.3,0.6-1.3,0.8-1.5c0.3-0.4,0.5,0.4,0.9-0.2c0.2-0.3,0.6,0.2,0.7-0.3
		c0-0.2,0-0.4-0.1-0.6c-0.1-0.3,0.2-0.3,0.1-0.6c-0.1-0.3-0.7,0.3-0.8,0.4c-0.1-0.2-0.5-0.2-0.8-0.1c-0.4,0.1-1.2-0.7-0.6-0.8
		c-1-0.7-0.2-0.5,0.3-1c0.1-0.1,0.8-0.5,0.7,0c-0.2,0.7,0.8,0.3,1.1,0.2c-0.5-0.2-0.4-0.6-0.8-0.8c-0.2-0.1-0.5-0.7-0.5-0.7
		c-0.4-0.4-0.6-0.4-0.5-0.9c0-0.3,0.3-0.2,0.6-0.2c0.5,0,0.6-0.6,0.8-0.9c0.1-0.3,2.3-1.6,2.3-1.2c-0.1,0-0.1,0.1-0.2,0.1
		c0-0.2,1-0.1,1.2,0c0.9,0.2,2,0.5,2.9,0.2c1.3-0.4,1.4,0.9,1.6,1.8C-409.7,297.4-409,299.7-408.3,302.1z"/>
	<path class="st1" d="M-340.3,268.1c0.4-0.1,0.6-0.3,0.5-0.7c0-0.1-0.2-0.5,0.1-0.5c-0.1-0.1-0.2-0.4-0.4-0.5
		c-0.1,0-0.5,0.1-0.5,0.2C-340.4,267.2-340.4,267.6-340.3,268.1"/>
	<path class="st1" d="M-341.4,266.9c-0.3,0.1-1.7,0.3-1.7,0.4c0.1,0.6,0.5,1.5,0.1,2c-0.2,0.3,0.4,0,0.5,0c0.5-0.5,0.5-0.6,1.1-0.7
		c0.4-0.2,0.6-0.2,0.4-0.6C-341,267.5-341,266.9-341.4,266.9z"/>
	<path class="st1" d="M-347.6,274.3c0.7,0.2-0.2,0.9,0.1,1.1c0,0,1.4,0.3,1.5,0.4c-0.1-0.4-0.4-0.7-0.5-1.1c-0.1-0.3-0.2-0.6-0.2-1
		c0-0.1,0.5-1.2,0.6-0.9c0.3,0.6-0.3,1.2,0.1,1.9c0.1,0.2-0.1,0.4,0.2,0.4c0.2,0,0.6,0.1,0.7,0.3c0.2,0.4-0.1,0.5,0.4,0.5
		c0.6,0,0.8-0.7,0.8-1.2c-0.3,0-1.1,0.4-1.3,0.3c-0.2-0.1-0.3-1.1-0.4-1.3c-0.1-0.5-0.3-1-0.4-1.5c0-0.1-1.2,0.2-1.3,0.3
		c-0.9,0.2-1.7,0.4-2.6,0.5c-0.6,0.1-1.1,0.2-1.7,0.3c-0.2,0,0,0.9,0.1,1.1c0.3-0.4,0.7-0.7,1-1.1c0-0.1,0.6,0.5,0.5,0.3
		c0.3,0,0.3-0.3,0.7-0.3c0.4,0,0.6,0.2,0.9,0.3c0.3,0.1,0.1,0.2,0.2,0.4C-348.1,274.2-347.7,274.2-347.6,274.3"/>
	<path class="st1" d="M-345.6,272.2c0.1-0.4,0.3-0.5,0.3-0.1c0,0.3,0.1,0.8,0.3,1c0.1,0.1,0.9,0.9,0.9,1.2c-0.4,0.1-0.8,0.4-0.9-0.1
		c-0.2-0.6-0.3-1.2-0.5-1.7"/>
</g>
</svg>
